# xmcd
#
# Track frame offsets:
#	150
#	17380
#	35375
#	50646
#	69983
#	86511
#	103801
#	119561
#	135596
#	149877
#	164125
#	179340
#	193554
#	213509
#	227201
#	243221
#	262053
#	280248
#
# Disc length: 3980 seconds
#
# Revision: 1
# Processed by: cddbd v1.5.1PL0 Copyright (c) Steve Scherf et al.
# Submitted via: audiograbber 1.83.01
#
DISCID=130f8a12
DTITLE=Various Artist - Hott Country 103
DYEAR=2004
DGENRE=Country
TTITLE0=Trent Willman - Dixie Rose Deluxe
TTITLE1=SheDaisy - Come Home Soon
TTITLE2=Blake Shelton - Some Beach
TTITLE3=Paul Brandt - Convoy
TTITLE4=Johnny Read - You Still Own Me
TTITLE5=Anita Cochran and Conway Twitty - I Wanna Hear A Cheatin' Song
TTITLE6=Katrina Elam - No End In Sight
TTITLE7=Crsoo Canadian Ragweed - Number
TTITLE8=Corb Lund Band - Roughest Neck Around
TTITLE9=Brad  Paisley - Mud On The Tires
TTITLE10=Restless Heart - Feel My Way
TTITLE11=Brad Cotter - Can't Tell Me Nothing
TTITLE12=Kenny Chesney - The Woman With You
TTITLE13=Steve Fox - Please
TTITLE14=Daryl Worley - Awful Beautiful Life
TTITLE15=Sugarland - Baby Girl
TTITLE16=Ryan Tyler - The Last Thing She Said
TTITLE17=Shania Twain - When You Kiss Me ( Country Mix )
EXTD=
EXTT0=
EXTT1=
EXTT2=
EXTT3=
EXTT4=
EXTT5=
EXTT6=
EXTT7=
EXTT8=
EXTT9=
EXTT10=
EXTT11=
EXTT12=
EXTT13=
EXTT14=
EXTT15=
EXTT16=
EXTT17=
PLAYORDER=
